#!OML:ASF F:\VICON\USERDATA\INSTALL\rory3\rory3.ASF
:FULLY-SPECIFIED
:DEGREES
652
root 0.712914 15.9922 46.3839 0.763403 -0.612043 5.93469
lowerback 11.8406 -0.343806 -9.99555
upperback -4.85848 -2.12727 0.184872
thorax -11.7143 -0.237152 6.30898
lowerneck -5.58275 -14.0831 -12.6382
upperneck 20.8331 -20.1231 9.15718
head 9.73196 -9.69045 2.77435
rclavicle -2.28602e-015 -2.10712e-014
rhumerus -41.2925 -1.02331 -86.4954
rradius 29.8126
rwrist 10.9854
rhand -10.3036 22.9339
rfingers 7.12502
rthumb 15.6913 -6.44983
lclavicle -2.28602e-015 -2.10712e-014
lhumerus -30.2067 0.12513 88.556
lradius 29.4455
lwrist 2.3669
lhand -4.33829 20.1656
lfingers 7.12502
lthumb 21.4291 49.0004
rfemur -30.4315 23.5421 6.3421
rtibia 25.8204
rfoot -26.4977 -19.8531
rtoes 43.6797
lfemur 7.94492 -13.0976 -34.7662
ltibia 11.8253
lfoot -13.9011 10.2399
ltoes 1.74901
653
root 0.698921 15.985 46.4776 0.740114 -0.448171 5.99854
lowerback 11.7553 -0.384623 -9.97501
upperback -4.81242 -2.16768 0.164371
thorax -11.6029 -0.267356 6.27836
lowerneck -5.37744 -14.2947 -12.7971
upperneck 20.7536 -20.45 9.28064
head 9.73895 -9.85141 2.79848
rclavicle 7.95139e-015 2.10712e-014
rhumerus -41.015 -0.693367 -86.5256
rradius 29.8409
rwrist 12.0988
rhand -10.3962 22.9885
rfingers 7.12502
rthumb 15.6021 -6.40228
lclavicle 7.95139e-015 2.10712e-014
lhumerus -30.1584 0.225067 88.61
lradius 29.3682
lwrist 2.25088
lhand -4.27772 19.761
lfingers 7.12502
lthumb 21.4873 48.5892
rfemur -30.1816 23.3287 6.44225
rtibia 25.7384
rfoot -27.2025 -19.5658
rtoes 43.7856
lfemur 8.50956 -13.0363 -34.8477
ltibia 11.528
lfoot -14.0567 10.0814
ltoes 1.80624
654
root 0.683077 15.9752 46.568 0.744094 -0.322515 6.00349
lowerback 11.7289 -0.424007 -9.93293
upperback -4.83889 -2.21022 0.182105
thorax -11.6094 -0.288627 6.28243
lowerneck -4.60255 -14.5029 -13.1882
upperneck 20.2903 -20.8299 9.68158
head 9.57445 -10.0623 2.98627
rclavicle 6.16232e-015 -1.59028e-015
rhumerus -40.9326 -0.331553 -86.5592
rradius 29.9809
rwrist 12.8633
rhand -10.3022 22.8829
rfingers 7.12502
rthumb 15.6927 -6.50079
lclavicle 6.16232e-015 -1.59028e-015
lhumerus -30.146 0.502118 88.6371
lradius 29.1708
lwrist 2.01973
lhand -4.11937 19.4139
lfingers 7.12502
lthumb 21.6393 48.2247
rfemur -29.9395 22.8588 6.74225
rtibia 25.7818
rfoot -27.8998 -19.0604
rtoes 43.9647
lfemur 9.02479 -13.0436 -34.8587
ltibia 11.309
lfoot -14.311 9.91408
ltoes 2.6509
655
root 0.662295 15.9592 46.6528 0.720198 -0.165322 6.05177
lowerback 11.7071 -0.449069 -9.96296
upperback -4.77908 -2.24233 0.182436
thorax -11.5209 -0.30902 6.30407
lowerneck -4.58437 -14.7237 -13.2648
upperneck 20.3643 -21.1396 9.64553
head 9.64159 -10.2122 2.93224
rclavicle -1.39149e-015 9.14409e-015
rhumerus -40.7395 -0.0189655 -86.5688
rradius 30.0922
rwrist 13.5068
rhand -10.2894 22.8715
rfingers 7.12502
rthumb 15.7049 -6.51118
lclavicle -1.39149e-015 9.14409e-015
lhumerus -29.9944 0.639548 88.6758
lradius 29.0172
lwrist 1.94423
lhand -4.15066 19.5049
lfingers 7.12502
lthumb 21.6093 48.3191
rfemur -29.6641 22.5139 6.99255
rtibia 25.8621
rfoot -27.2596 -18.623
rtoes 45.0134
lfemur 9.36363 -13.0078 -34.8747
ltibia 11.3539
lfoot -14.4165 9.74482
ltoes 2.10638
656
root 0.63696 15.9457 46.738 0.724767 -0.0405625 6.20329
lowerback 11.7979 -0.452788 -10.1499
upperback -4.82676 -2.29382 0.17112
thorax -11.6187 -0.312034 6.41243
lowerneck -4.04385 -14.9582 -13.5713
upperneck 20.0969 -21.5279 9.8795
head 9.56469 -10.4221 3.03051
rclavicle 1.77415e-014 1.94809e-014
rhumerus -40.6695 0.180209 -86.4815
rradius 30.077
rwrist 14.4297
rhand -10.1415 22.6927
rfingers 7.12502
rthumb 15.8474 -6.67879
lclavicle 1.77415e-014 1.94809e-014
lhumerus -30.0972 1.05764 88.6175
lradius 28.9013
lwrist 1.49368
lhand -4.20271 19.3789
lfingers 7.12502
lthumb 21.5593 48.1989
rfemur -29.3932 22.0577 7.17442
rtibia 25.9875
rfoot -27.0418 -19.0927
rtoes 46.7279
lfemur 9.5522 -12.7765 -34.9237
ltibia 11.5291
lfoot -14.4012 9.52031
ltoes 0.739631
657
root 0.611294 15.937 46.8239 0.732395 0.0370195 6.19035
lowerback 11.9241 -0.466535 -10.1944
upperback -4.9042 -2.33669 0.204308
thorax -11.7744 -0.314713 6.49052
lowerneck -4.05352 -15.1825 -13.598
upperneck 20.3062 -21.8291 9.69084
head 9.65949 -10.5741 2.91633
rclavicle 1.00635e-014 0
rhumerus -40.6032 0.403302 -86.423
rradius 30.0108
rwrist 15.1785
rhand -9.97284 22.4954
rfingers 7.12502
rthumb 16.0098 -6.86309
lclavicle 1.00635e-014 0
lhumerus -30.25 1.38318 88.5279
lradius 28.8442
lwrist 1.13282
lhand -3.87577 19.3966
lfingers 7.12502
lthumb 21.8732 48.1803
rfemur -29.1635 21.6534 7.52939
rtibia 26.1941
rfoot -25.4745 -19.1772
rtoes 47.5453
lfemur 9.80792 -12.4811 -34.7844
ltibia 11.6215
lfoot -14.4399 9.20836
ltoes 0.161638
658
root 0.588184 15.9316 46.9179 0.696143 0.0908324 5.96635
lowerback 11.8178 -0.520151 -10.0088
upperback -4.85856 -2.34856 0.322976
thorax -11.6531 -0.338088 6.51473
lowerneck -3.89103 -15.3609 -13.7503
upperneck 20.2904 -22.0961 9.73012
head 9.68299 -10.7114 2.91581
rclavicle 1.18525e-014 -3.18055e-015
rhumerus -40.3409 0.727806 -86.3785
rradius 29.9375
rwrist 15.3854
rhand -9.87446 22.2488
rfingers 7.12502
rthumb 16.1045 -7.102
lclavicle 1.18525e-014 -3.18055e-015
lhumerus -30.1956 1.59688 88.5168
lradius 28.625
lwrist 1.11374
lhand -3.71882 19.4984
lfingers 7.12502
lthumb 22.024 48.2644
rfemur -28.9726 21.455 8.04797
rtibia 26.5194
rfoot -24.6387 -19.4248
rtoes 47.7462
lfemur 10.3206 -12.2397 -34.4616
ltibia 11.4144
lfoot -14.5528 8.77535
ltoes 0.259662
659
root 0.562275 15.9285 47.0157 0.600234 0.154785 5.90858
lowerback 11.8881 -0.542629 -9.99765
upperback -4.90249 -2.38028 0.393899
thorax -11.7376 -0.343581 6.59829
lowerneck -3.30825 -15.4558 -14.0337
upperneck 19.8967 -22.3025 10.0533
head 9.54233 -10.8337 3.07723
rclavicle -3.47873e-016 -1.35174e-014
rhumerus -40.2937 1.05494 -86.3337
rradius 29.8196
rwrist 15.4202
rhand -9.82124 22.1138
rfingers 7.12502
rthumb 16.1558 -7.23285
lclavicle -3.47873e-016 -1.35174e-014
lhumerus -30.3735 1.821 88.5324
lradius 28.3823
lwrist 1.10101
lhand -3.54373 19.6154
lfingers 7.12502
lthumb 22.192 48.3615
rfemur -28.8069 21.4333 8.35102
rtibia 26.9247
rfoot -23.9325 -19.9183
rtoes 47.4973
lfemur 11.0455 -12.068 -34.3367
ltibia 10.9356
lfoot -14.4628 8.612
ltoes -0.636135
660
root 0.541463 15.9179 47.1148 0.489896 0.402227 6.08704
lowerback 11.5501 -0.648994 -10.0929
upperback -4.62711 -2.48534 0.353415
thorax -11.1963 -0.432424 6.60558
lowerneck -3.14467 -15.6662 -14.2005
upperneck 19.4687 -22.6286 10.3933
head 9.47058 -10.9823 3.173
rclavicle 1.75179e-014 9.93923e-015
rhumerus -39.7068 1.36168 -86.3454
rradius 29.6821
rwrist 15.1788
rhand -9.83288 21.9345
rfingers 7.12502
rthumb 16.1446 -7.41308
lclavicle 1.75179e-014 9.93923e-015
lhumerus -30.0025 2.19478 88.4357
lradius 27.993
lwrist 0.731046
lhand -3.39728 19.5008
lfingers 7.12502
lthumb 22.3326 48.2302
rfemur -28.6113 20.9471 8.40922
rtibia 27.4265
rfoot -23.623 -19.6505
rtoes 48.1064
lfemur 12.0684 -12.0004 -34.5333
ltibia 10.1591
lfoot -14.1547 8.63598
ltoes -3.13601
661
root 0.517469 15.9145 47.2162 0.401174 0.593913 6.25733
lowerback 11.8065 -0.697825 -10.2368
upperback -4.82418 -2.61972 0.343132
thorax -11.5491 -0.456304 6.71934
lowerneck -2.48586 -15.8021 -14.4387
upperneck 19.3831 -22.8755 10.3887
head 9.38637 -11.1463 3.21716
rclavicle 5.73991e-015 2.38542e-015
rhumerus -39.9893 1.71471 -86.3202
rradius 29.6546
rwrist 14.5503
rhand -9.95144 21.7367
rfingers 7.12502
rthumb 16.0304 -7.62013
lclavicle 5.73991e-015 2.38542e-015
lhumerus -30.567 2.40527 88.4335
lradius 27.7389
lwrist 0.757953
lhand -3.81741 19.3128
lfingers 7.12502
lthumb 21.9293 48.0899
rfemur -28.4799 20.5829 8.45967
rtibia 27.8971
rfoot -22.6656 -20.2082
rtoes 48.1728
lfemur 13.0258 -12.0017 -34.7143
ltibia 9.4544
lfoot -13.9089 8.70764
ltoes -4.63262
662
root 0.493344 15.9191 47.3123 0.388239 0.699179 6.36287
lowerback 11.3874 -0.78048 -10.3357
upperback -4.58405 -2.68045 0.337327
thorax -11.007 -0.522337 6.75383
lowerneck -2.83394 -16.0431 -14.4401
upperneck 19.4221 -23.1672 10.338
head 9.49525 -11.2659 3.11787
rclavicle -2.84759e-014 -2.54444e-014
rhumerus -39.3362 1.78684 -86.2433
rradius 29.3387
rwrist 13.9971
rhand -10.0612 21.6933
rfingers 7.12502
rthumb 15.9248 -7.67196
lclavicle -2.84759e-014 -2.54444e-014
lhumerus -30.3515 2.56164 88.4776
lradius 27.3479
lwrist 1.15008
lhand -4.68201 18.9164
lfingers 7.12502
lthumb 21.0989 47.7885
rfemur -28.4508 20.2332 8.5555
rtibia 28.3053
rfoot -20.484 -21.853
rtoes 48.1621
lfemur 13.6165 -11.9463 -34.7721
ltibia 9.07757
lfoot -13.8264 8.65787
ltoes -5.56358
663
root 0.465538 15.9177 47.406 0.373037 0.823064 6.09163
lowerback 11.605 -0.847553 -10.0828
upperback -4.75682 -2.75575 0.444126
thorax -11.322 -0.545155 6.75965
lowerneck -2.53196 -16.1291 -14.4701
upperneck 19.4903 -23.3167 10.2423
head 9.47717 -11.3585 3.09068
rclavicle 6.26172e-015 1.55052e-014
rhumerus -39.3985 1.83548 -86.1005
rradius 29.0018
rwrist 13.3947
rhand -10.4724 22.1579
rfingers 7.12502
rthumb 15.5287 -7.23858
lclavicle 6.26172e-015 1.55052e-014
lhumerus -30.8148 2.79558 88.4234
lradius 26.9346
lwrist 1.19328
lhand -5.24813 18.4664
lfingers 7.12502
lthumb 20.555 47.3982
rfemur -28.2559 19.8996 9.10616
rtibia 28.5776
rfoot -19.6422 -22.3191
rtoes 49.2701
lfemur 13.8691 -11.9189 -34.3987
ltibia 9.26911
lfoot -13.9073 8.48959
ltoes -6.60383
664
root 0.435025 15.9125 47.5043 0.280877 0.91159 5.8778
lowerback 11.6891 -0.894115 -9.94129
upperback -4.81695 -2.79758 0.547674
thorax -11.432 -0.561472 6.80913
lowerneck -2.32675 -16.2788 -14.5761
upperneck 19.5284 -23.5581 10.2468
head 9.50135 -11.4857 3.07975
rclavicle -6.08778e-015 3.57812e-015
rhumerus -39.4201 1.63254 -85.8157
rradius 28.8262
rwrist 12.776
rhand -10.798 22.5146
rfingers 7.12502
rthumb 15.215 -6.90593
lclavicle -6.08778e-015 3.57812e-015
lhumerus -31.1535 3.12601 88.2862
lradius 26.5208
lwrist 0.950903
lhand -5.58367 18.0607
lfingers 7.12502
lthumb 20.2325 47.027
rfemur -27.8502 19.2855 9.74947
rtibia 28.7932
rfoot -20.368 -20.4721
rtoes 48.1397
lfemur 13.9897 -11.8424 -34.0808
ltibia 9.83425
lfoot -14.1994 8.25477
ltoes -6.24007
665
root 0.406182 15.9056 47.6051 0.0579293 0.929995 5.77565
lowerback 11.6964 -0.94271 -9.91756
upperback -4.71886 -2.84336 0.643051
thorax -11.3106 -0.591796 6.90826
lowerneck -2.10102 -16.4057 -14.7023
upperneck 19.3786 -23.7602 10.3374
head 9.46501 -11.5935 3.11153
rclavicle -2.80038e-014 5.96354e-015
rhumerus -39.2374 1.62465 -85.6149
rradius 28.7757
rwrist 11.8859
rhand -10.9913 22.5076
rfingers 7.12502
rthumb 15.0289 -6.92693
lclavicle -2.80038e-014 5.96354e-015
lhumerus -31.2885 3.80001 88.0751
lradius 26.0985
lwrist 0.614423
lhand -5.7612 17.9463
lfingers 7.12502
lthumb 20.0619 46.9306
rfemur -27.313 18.6207 10.3288
rtibia 29.0169
rfoot -19.3799 -20.142
rtoes 47.2862
lfemur 14.184 -11.6632 -33.9176
ltibia 10.5301
lfoot -14.5415 8.06717
ltoes -5.34848
666
root 0.377353 15.9016 47.7049 -0.0907726 0.972739 5.78051
lowerback 11.8963 -0.978483 -9.91021
upperback -4.8115 -2.91621 0.670611
thorax -11.5222 -0.608372 6.96289
lowerneck -1.84311 -16.53 -14.7811
upperneck 19.468 -23.9526 10.215
head 9.47114 -11.7082 3.06975
rclavicle -2.54941e-014 1.94809e-014
rhumerus -39.2584 1.39785 -85.3295
rradius 28.5346
rwrist 11.1063
rhand -11.2976 22.6484
rfingers 7.12502
rthumb 14.7338 -6.80796
lclavicle -2.54941e-014 1.94809e-014
lhumerus -31.6937 4.43132 87.7843
lradius 25.6708
lwrist 0.203343
lhand -5.34288 18.4133
lfingers 7.12502
lthumb 20.4639 47.3549
rfemur -26.9918 17.9265 10.7106
rtibia 29.3672
rfoot -21.0435 -20.1391
rtoes 39.0279
lfemur 14.4089 -11.4995 -33.8467
ltibia 11.021
lfoot -14.6931 7.81552
ltoes -5.97259
